<?xml version="1.0" standalone="no"?><!DOCTYPE svg PUBLIC "-//W3C//DTD SVG 1.1//EN" "http://www.w3.org/Graphics/SVG/1.1/DTD/svg11.dtd"><svg t="1528016945365" class="icon" style="" viewBox="0 0 1200 1024" version="1.1" xmlns="http://www.w3.org/2000/svg" p-id="947" xmlns:xlink="http://www.w3.org/1999/xlink" width="234.375" height="200"><defs><style type="text/css"></style></defs><path d="M695.998171 0H43.485867C19.465752 0 0 19.280457 0 43.056762v297.915733h611.913143c12.726857 0 24.888076 5.188267 33.635962 14.336l142.014171 148.636038c3.159771 3.31581 3.179276 8.484571 0.029257 11.810134L645.56861 665.824305C636.820724 675.069562 627.204876 682.666667 614.4 682.666667H0v298.276571C0 1004.719543 19.465752 1024 43.485867 1024h652.385523c14.37501 0 28.155124-5.656381 38.317105-15.720838l440.76861-436.760381a86.308571 86.308571 0 0 0-0.263315-123.104305L734.159238 15.5648A54.4768 54.4768 0 0 0 695.998171 0z" fill="#5B5C5C" p-id="948"></path></svg>